<svg width="198" height="40" viewBox="0 0 198 40" fill="none" xmlns="http://www.w3.org/2000/svg">
<path d="M0.5 6C0.5 2.96243 2.96243 0.5 6 0.5H192C195.038 0.5 197.5 2.96243 197.5 6V34C197.5 37.0376 195.038 39.5 192 39.5H5.99999C2.96243 39.5 0.5 37.0376 0.5 34V6Z" stroke="#E4E4E7"/>
<path d="M29 15V12C29 11.4696 29.2107 10.9609 29.5858 10.5858C29.9609 10.2107 30.4696 10 31 10H39.5L45 15.5V28C45 28.5304 44.7893 29.0391 44.4142 29.4142C44.0391 29.7893 43.5304 30 43 30H37" stroke="black" stroke-width="2" stroke-linecap="round" stroke-linejoin="round"/>
<path d="M39 10V16H45" stroke="black" stroke-width="2" stroke-linecap="round" stroke-linejoin="round"/>
<path d="M30 25C30.394 25 30.7841 24.9224 31.1481 24.7716C31.512 24.6209 31.8427 24.3999 32.1213 24.1213C32.3999 23.8427 32.6209 23.512 32.7716 23.1481C32.9224 22.7841 33 22.394 33 22C33 21.606 32.9224 21.2159 32.7716 20.8519C32.6209 20.488 32.3999 20.1573 32.1213 19.8787C31.8427 19.6001 31.512 19.3791 31.1481 19.2284C30.7841 19.0776 30.394 19 30 19C29.2044 19 28.4413 19.3161 27.8787 19.8787C27.3161 20.4413 27 21.2044 27 22C27 22.7956 27.3161 23.5587 27.8787 24.1213C28.4413 24.6839 29.2044 25 30 25Z" stroke="black" stroke-width="2" stroke-linecap="round" stroke-linejoin="round"/>
<path d="M32 24.5L33 30L30 29L27 30L28 24.5" stroke="black" stroke-width="2" stroke-linecap="round" stroke-linejoin="round"/>
<path d="M63.398 18.966C66.52 19.218 68.718 19.876 68.718 22.032C68.718 23.964 66.884 25.308 63.412 25.308C60.934 25.308 58.918 24.608 57.42 23.334L58.708 21.808C59.912 22.914 61.466 23.432 63.468 23.432C65.456 23.432 66.464 23.054 66.464 22.242C66.464 21.43 65.456 21.206 63.202 21.01C60.402 20.772 57.798 20.156 57.798 18.056C57.798 16.012 59.982 14.892 63.006 14.892C65.148 14.892 66.996 15.424 68.242 16.39L67.01 17.944C65.932 17.118 64.602 16.782 63.006 16.768C61.676 16.754 60.052 16.992 60.052 17.888C60.052 18.728 61.452 18.812 63.398 18.966ZM79.1347 15.2H81.3747V20.38C81.3747 23.32 79.4287 25.308 75.8727 25.308C72.3167 25.308 70.3707 23.32 70.3707 20.38V15.2H72.6107V20.212C72.6107 22.172 73.7587 23.348 75.8727 23.348C77.9867 23.348 79.1347 22.172 79.1347 20.212V15.2ZM90.5337 15.2C93.0537 15.2 94.7337 16.376 94.7337 18.518C94.7337 20.688 93.0537 21.836 90.5337 21.836H86.0677V25H83.8277V15.2H90.5337ZM90.3517 19.988C91.6117 19.988 92.4517 19.652 92.4517 18.532C92.4517 17.412 91.6117 17.076 90.3517 17.076H86.0677V19.988H90.3517ZM102.228 25H99.9879V15.2H102.228V25ZM113.843 15.2H116.013V25H114.053L107.025 17.916V25H104.855V15.2H107.235L113.843 21.92V15.2ZM117.362 15.2H119.812L123.508 22.774L127.19 15.2H129.612L124.67 25H122.304L117.362 15.2ZM136.062 25.308C132.24 25.308 129.832 23.376 129.832 20.1C129.832 16.824 132.24 14.892 136.062 14.892C139.884 14.892 142.292 16.824 142.292 20.1C142.292 23.376 139.884 25.308 136.062 25.308ZM136.062 23.376C138.484 23.376 140.01 22.2 140.01 20.1C140.01 18 138.484 16.824 136.062 16.824C133.64 16.824 132.114 18 132.114 20.1C132.114 22.2 133.626 23.376 136.062 23.376ZM146.552 25H144.312V15.2H146.552V25ZM154.695 23.376C156.151 23.376 157.229 22.9 157.957 21.78L160.001 22.802C159.077 24.188 157.187 25.308 154.625 25.308C150.943 25.308 148.549 23.362 148.549 20.1C148.549 16.838 150.943 14.892 154.723 14.892C157.187 14.892 159.077 16.026 159.973 17.384L157.915 18.406C157.215 17.314 156.151 16.824 154.695 16.824C152.371 16.824 150.831 17.944 150.831 20.1C150.831 22.256 152.371 23.376 154.695 23.376ZM163.901 23.124H171.769V25H161.675V15.2H171.629V17.076H163.901V19.092H170.355V20.968H163.901V23.124Z" fill="#09090B"/>
</svg>
